<svg width="31" height="31" viewBox="0 0 31 31" fill="none" xmlns="http://www.w3.org/2000/svg">
<path fill-rule="evenodd" clip-rule="evenodd" d="M9.95758 14.9986C9.95758 12.2146 12.2144 9.95776 14.9984 9.95776C17.7823 9.95776 20.0392 12.2146 20.0392 14.9986C20.0392 17.7825 17.7823 20.0394 14.9984 20.0394C12.2144 20.0394 9.95758 17.7825 9.95758 14.9986ZM14.9984 11.5496C13.0936 11.5496 11.5494 13.0938 11.5494 14.9986C11.5494 16.9034 13.0936 18.4476 14.9984 18.4476C16.9032 18.4476 18.4474 16.9034 18.4474 14.9986C18.4474 13.0938 16.9032 11.5496 14.9984 11.5496Z" fill="white"/>
<path fill-rule="evenodd" clip-rule="evenodd" d="M10.7535 6.24321C8.26263 6.24321 6.24333 8.26251 6.24333 10.7534V19.2433C6.24333 21.7342 8.26263 23.7535 10.7535 23.7535H19.2434C21.7343 23.7535 23.7536 21.7342 23.7536 19.2433V10.7534C23.7536 8.26251 21.7343 6.24321 19.2434 6.24321H10.7535ZM4.65149 10.7534C4.65149 7.38336 7.38348 4.65137 10.7535 4.65137H19.2434C22.6134 4.65137 25.3454 7.38336 25.3454 10.7534V19.2433C25.3454 22.6133 22.6134 25.3453 19.2434 25.3453H10.7535C7.38348 25.3453 4.65149 22.6133 4.65149 19.2433V10.7534Z" fill="white"/>
<path fill-rule="evenodd" clip-rule="evenodd" d="M21.3783 8.56885C21.705 8.86293 21.7314 9.36618 21.4374 9.6929L21.4268 9.70469C21.1327 10.0314 20.6294 10.0579 20.3027 9.7638C19.976 9.46972 19.9495 8.96647 20.2436 8.63975L20.2542 8.62796C20.5483 8.30124 21.0515 8.27478 21.3783 8.56885Z" fill="white"/>
</svg>
