<svg width="31" height="31" viewBox="0 0 31 31" fill="none" xmlns="http://www.w3.org/2000/svg">
<path d="M25.0921 9.11286C24.3895 9.42088 23.6373 9.63279 22.8446 9.7289C23.6534 9.24359 24.2719 8.47592 24.5667 7.56141C23.808 8.00315 22.9687 8.32311 22.0763 8.50398C21.3648 7.74228 20.3476 7.26294 19.2188 7.26294C17.0548 7.26294 15.301 9.01615 15.301 11.1771C15.301 11.4881 15.3386 11.7866 15.4037 12.0695C12.1486 11.9173 9.26298 10.3533 7.33307 7.99061C6.99401 8.56606 6.8012 9.23463 6.8012 9.96231C6.8012 11.3239 7.49424 12.5178 8.54188 13.2198C7.90136 13.2013 7.29845 13.024 6.77016 12.7321V12.7793C6.77016 14.6781 8.11924 16.2612 9.91006 16.6218C9.58354 16.7083 9.23492 16.7585 8.88094 16.7585C8.62963 16.7585 8.38966 16.734 8.15028 16.6898C8.6541 18.2443 10.0963 19.3761 11.8155 19.4101C10.4789 20.4577 8.78483 21.0821 6.95939 21.0821C6.64838 21.0821 6.33797 21.0672 6.02637 21.0296C7.76764 22.1399 9.82291 22.7894 12.0429 22.7894C19.2462 22.7894 23.1824 16.8229 23.1824 11.6558C23.1824 11.4911 23.1824 11.3233 23.1699 11.155C23.9382 10.6076 24.6032 9.91395 25.1285 9.12778L25.0921 9.11286Z" fill="white"/>
</svg>
