<svg width="31" height="31" viewBox="0 0 31 31" fill="none" xmlns="http://www.w3.org/2000/svg">
<path fill-rule="evenodd" clip-rule="evenodd" d="M5.46783 14.9986C5.46783 9.32806 10.0647 4.7312 15.7352 4.7312C21.4057 4.7312 26.0026 9.32806 26.0026 14.9986C26.0026 20.6691 21.4057 25.266 15.7352 25.266C10.0647 25.266 5.46783 20.6691 5.46783 14.9986ZM15.7352 6.16386C10.8559 6.16386 6.90049 10.1193 6.90049 14.9986C6.90049 19.8778 10.8559 23.8333 15.7352 23.8333C20.6145 23.8333 24.5699 19.8778 24.5699 14.9986C24.5699 10.1193 20.6145 6.16386 15.7352 6.16386Z" fill="white"/>
<path fill-rule="evenodd" clip-rule="evenodd" d="M5.98851 15.2312C6.12371 14.8594 6.53472 14.6676 6.90651 14.8028L12.1596 16.7131C12.513 16.8416 12.7069 17.2215 12.6036 17.583L11.7093 20.7128L12.5944 23.3679C12.7195 23.7432 12.5166 24.1489 12.1413 24.274C11.766 24.3991 11.3603 24.1963 11.2352 23.821L10.2801 20.9556C10.2345 20.8187 10.2313 20.6711 10.2709 20.5323L11.0426 17.8313L6.41691 16.1492C6.04512 16.014 5.85331 15.603 5.98851 15.2312Z" fill="white"/>
<path fill-rule="evenodd" clip-rule="evenodd" d="M20.2842 14.7963C20.3825 14.7635 20.4868 14.7525 20.5898 14.7639L24.8878 15.2415C25.281 15.2851 25.5643 15.6393 25.5206 16.0325C25.477 16.4257 25.1228 16.709 24.7296 16.6654L20.588 16.2052L18.3617 16.9473V19.2888L20.2992 20.0638C20.524 20.1537 20.6881 20.3511 20.7356 20.5884L21.2131 22.9762C21.2907 23.3641 21.0391 23.7415 20.6512 23.8191C20.2633 23.8967 19.8859 23.6451 19.8083 23.2572L19.4069 21.2499L17.3794 20.4389C17.1074 20.3301 16.9291 20.0667 16.9291 19.7738V16.431C16.9291 16.1226 17.1264 15.8489 17.4189 15.7514L20.2842 14.7963Z" fill="white"/>
<path fill-rule="evenodd" clip-rule="evenodd" d="M22.6475 8.11068C23.0228 8.23579 23.2256 8.64146 23.1005 9.01678L22.623 10.4494C22.5372 10.7068 22.3133 10.8937 22.0447 10.932L19.3169 11.3217V12.5077L20.7223 11.9456C20.8069 11.9117 20.8972 11.8943 20.9883 11.8943H22.8985C23.0097 11.8943 23.1194 11.9202 23.2189 11.97L25.1291 12.9251C25.4829 13.102 25.6264 13.5323 25.4494 13.8861C25.2725 14.24 24.8422 14.3834 24.4884 14.2065L22.7294 13.327H21.1263L18.8666 14.2309C18.6459 14.3192 18.3958 14.2922 18.199 14.1589C18.0021 14.0257 17.8842 13.8035 17.8842 13.5658V10.7005C17.8842 10.344 18.1463 10.0417 18.4992 9.99133L21.4038 9.57639L21.7414 8.56373C21.8665 8.18841 22.2722 7.98558 22.6475 8.11068Z" fill="white"/>
<path fill-rule="evenodd" clip-rule="evenodd" d="M12.072 5.76182C12.4259 5.58489 12.8561 5.72832 13.0331 6.08217L13.9882 7.99238C14.1031 8.2223 14.0861 8.49619 13.9435 8.71008L12.0333 11.5754C11.9279 11.7335 11.764 11.8432 11.5777 11.8805L9.36088 12.3238L7.10922 14.1252C6.80029 14.3723 6.34951 14.3222 6.10237 14.0133C5.85523 13.7044 5.90532 13.2536 6.21424 13.0065L8.602 11.0962C8.69143 11.0247 8.79671 10.9756 8.90901 10.9532L11.0058 10.5338L12.5209 8.26127L11.7517 6.72287C11.5747 6.36902 11.7182 5.93874 12.072 5.76182Z" fill="white"/>
</svg>
