<svg width="12" height="13" viewBox="0 0 12 13" fill="none" xmlns="http://www.w3.org/2000/svg">
<path d="M6.30068 2.15314H5.52956V6.97698L8.31555 8.46515L8.64658 7.68239L6.30068 6.4293V2.15314Z" fill="#4D4D4D"/>
<path d="M5.92683 0C2.73275 0 0.143417 2.91016 0.143417 6.5C0.143417 10.0898 2.73275 13 5.92683 13C9.12092 13 11.7102 10.0898 11.7102 6.5C11.7102 2.91016 9.12092 0 5.92683 0ZM5.92683 12.1333C3.15862 12.1333 0.914539 9.6112 0.914539 6.5C0.914539 3.3888 3.15862 0.866667 5.92683 0.866667C8.69504 0.866667 10.9391 3.3888 10.9391 6.5C10.9391 9.6112 8.69504 12.1333 5.92683 12.1333Z" fill="#4D4D4D"/>
</svg>
