<svg width="13" height="13" viewBox="0 0 13 13" fill="none" xmlns="http://www.w3.org/2000/svg">
<path d="M6.92013 2.15314H6.05347V6.97698L9.18465 8.46515L9.5567 7.68239L6.92013 6.4293V2.15314Z" fill="white"/>
<path d="M6.5 0C2.91016 0 0 2.91016 0 6.5C0 10.0898 2.91016 13 6.5 13C10.0898 13 13 10.0898 13 6.5C13 2.91016 10.0898 0 6.5 0ZM6.5 12.1333C3.3888 12.1333 0.866667 9.6112 0.866667 6.5C0.866667 3.3888 3.3888 0.866667 6.5 0.866667C9.6112 0.866667 12.1333 3.3888 12.1333 6.5C12.1333 9.6112 9.6112 12.1333 6.5 12.1333Z" fill="white"/>
</svg>
